# Blender 4.3.2
# www.blender.org
mtllib untitled.mtl
o Sphere
v -0.225891 -0.618062 -0.771975
v -0.202274 0.903317 -0.423872
v 0.196115 0.199514 -0.980482
v 0.189834 0.975984 -0.203282
v 0.172654 0.703182 -0.717184
v 0.224762 -0.369702 -0.927231
v 0.558883 -0.149714 -0.831077
v 0.624289 -0.487417 -0.628039
v 0.248711 -0.757496 -0.632487
v 0.580240 0.449906 -0.717901
v 0.844562 0.108868 -0.547531
v 0.095284 1.003959 0.083724
v 0.496393 0.788463 -0.391557
v 0.759822 -0.641350 -0.220106
v 0.295050 -0.949704 -0.232168
v 0.850226 0.475433 -0.260919
v 0.943949 -0.191811 -0.335434
v 0.674180 0.763681 0.002109
v 0.881804 0.467887 0.181001
v 1.007736 0.127230 0.139839
v 0.956628 -0.295861 0.173572
v 0.455747 -0.901325 0.002548
v 0.411633 0.895946 0.221526
v 0.599604 0.638968 0.497466
v 0.756879 0.292918 0.599509
v 0.765762 -0.098975 0.650062
v 0.731202 -0.588612 0.413439
v 0.183961 0.870112 0.503188
v 0.345413 0.479008 0.825073
v 0.371926 0.100138 0.941452
v 0.384926 -0.410268 0.852270
v 0.374918 -0.805327 0.506653
v 0.158944 -0.965865 0.244808
v -0.183979 0.307755 0.949415
v -0.000045 -0.031517 1.019163
v -0.183979 -0.307755 0.949415
v -0.236097 -0.607486 0.787473
v -0.268285 0.597697 0.788147
v -0.601983 0.077002 0.812629
v -0.264792 -0.864433 0.477592
v -0.198494 0.897346 0.428204
v -0.667528 -0.279475 0.712111
v -0.697849 0.550484 0.500474
v -0.893623 0.098976 0.458703
v -0.554854 0.805655 0.256621
v -0.721828 -0.600535 0.397319
v -0.884792 0.475433 0.090034
v -1.005684 0.130347 0.017193
v -0.939283 -0.376879 0.162723
v -0.827658 0.479008 -0.339171
v -0.936275 -0.001141 -0.408912
v -0.746182 -0.661925 -0.189317
v -0.627993 0.767755 -0.228925
v -0.444899 -0.915720 -0.028884
v -0.278834 0.970951 -0.019202
v -0.566425 0.475433 -0.685657
v -0.624227 0.098976 -0.786963
v -0.728936 -0.371083 -0.618511
v -0.297418 0.588597 -0.778600
v -0.209111 0.071271 -0.990741
v -0.288332 -0.300258 -0.919952
v -0.268267 -0.864451 -0.474137
v -0.130902 -1.002543 -0.021483
vn -0.0224 -0.9581 -0.2855
vn 0.2812 0.4548 -0.8450
vn 0.3195 -0.0723 -0.9448
vn 0.2391 0.8543 -0.4615
vn 0.6426 0.1200 -0.7568
vn 0.4791 -0.3823 -0.7902
vn 0.1188 0.2816 0.9522
vn 0.5256 -0.7235 -0.4476
vn 0.7697 -0.1781 -0.6131
vn 0.4488 0.8814 -0.1472
vn 0.6813 0.5884 -0.4354
vn 0.5448 -0.8131 -0.2054
vn 0.9584 0.1666 -0.2320
vn 0.3182 0.9479 0.0124
vn 0.8216 -0.5638 0.0840
vn 0.1240 -0.9923 0.0018
vn 0.5496 -0.8001 0.2405
vn 0.2400 -0.9701 0.0356
vn 0.3835 -0.8940 0.2317
vn 0.8867 0.0789 0.4555
vn 0.9138 -0.0786 0.3985
vn 0.6076 0.7437 0.2787
vn 0.2103 0.9434 0.2566
vn 0.5777 0.4612 0.6734
vn 0.5556 0.2794 0.7831
vn 0.6521 -0.3667 0.6636
vn 0.4432 0.7863 0.4304
vn 0.3846 0.6760 0.6285
vn 0.2558 -0.1601 0.9534
vn 0.0622 -0.4828 0.8735
vn 0.1302 -0.6547 0.7446
vn 0.0424 -0.7710 0.6354
vn 0.0585 -0.8718 0.4863
vn 0.1057 -0.3090 0.9452
vn -0.0989 -0.9656 0.2407
vn -0.3212 0.0205 0.9468
vn 0.0086 0.9532 0.3023
vn -0.4422 -0.1672 0.8812
vn -0.4265 -0.3714 0.8247
vn -0.4529 0.3292 0.8286
vn -0.5291 -0.5468 0.6489
vn -0.7368 0.2618 0.6234
vn -0.5166 -0.8138 0.2661
vn -0.8623 -0.2052 0.4629
vn -0.8269 -0.3161 0.4651
vn -0.7436 0.6302 0.2234
vn -0.5070 0.8619 0.0091
vn -0.7632 -0.6387 0.0985
vn -0.7997 0.5917 -0.1015
vn -0.9809 -0.1601 -0.1104
vn -0.9416 0.2463 -0.2294
vn -0.8983 -0.3649 -0.2446
vn -0.3869 0.8948 -0.2228
vn -0.5174 -0.8023 -0.2976
vn -0.5684 -0.6703 -0.4771
vn -0.6262 0.6157 -0.4784
vn -0.4650 0.7205 -0.5145
vn -0.0558 0.9918 -0.1151
vn -0.0382 -0.1792 -0.9831
vn -0.1004 0.7575 -0.6451
vn 0.0028 0.4634 -0.8862
vn 0.0538 -0.0903 -0.9945
vn 0.0573 -0.6019 -0.7965
vn 0.0519 -0.8979 -0.4371
vn 0.1013 0.8773 -0.4691
vn 0.3969 -0.5397 -0.7424
vn 0.4925 0.1444 -0.8582
vn 0.4222 0.6811 -0.5982
vn 0.5093 -0.7513 -0.4197
vn 0.7613 -0.2194 -0.6101
vn 0.7929 -0.4344 -0.4274
vn 0.7909 0.3693 -0.4879
vn 0.6920 0.6694 -0.2704
vn 0.9605 0.1537 -0.2321
vn 0.9911 -0.1237 -0.0500
vn 0.4177 0.9074 -0.0471
vn 0.9106 -0.3998 -0.1044
vn 0.8314 0.5534 -0.0500
vn 0.9338 0.3525 -0.0607
vn 0.6848 -0.7230 0.0911
vn 0.7029 0.6575 0.2714
vn 0.7685 0.4755 0.4282
vn 0.8815 0.2799 0.3802
vn 0.8460 -0.2792 0.4543
vn 0.6274 0.1136 0.7704
vn 0.5461 -0.1307 0.8274
vn 0.5149 -0.5718 0.6387
vn -0.0685 0.7732 0.6304
vn 0.0810 0.6531 0.7529
vn 0.0436 0.4953 0.8676
vn -0.4345 0.7343 0.5216
vn -0.3277 -0.0203 0.9446
vn -0.9005 0.3148 0.2999
vn -0.4799 -0.6530 0.5859
vn -0.5427 0.3830 0.7475
vn -0.1367 0.9733 0.1847
vn -0.7723 -0.0368 0.6341
vn -0.2658 -0.9451 0.1902
vn -0.3378 0.9171 0.2115
vn -0.9686 -0.0574 0.2418
vn -0.7730 0.2653 -0.5763
vn -0.6727 -0.7325 0.1046
vn -0.7200 0.6919 0.0544
vn -0.9286 0.3508 -0.1207
vn -0.9164 -0.3132 -0.2491
vn -0.4111 0.2892 -0.8645
vn -0.7617 -0.0615 -0.6450
vn -0.4931 -0.6346 -0.5951
vn -0.4775 0.7094 -0.5184
vn -0.2560 -0.9436 -0.2102
vn -0.4988 -0.1344 -0.8563
vn -0.0809 0.9805 -0.1792
vn -0.4547 -0.4478 -0.7699
vn -0.0713 -0.4325 -0.8988
vn -0.0373 -0.7674 -0.6401
vn -0.0918 0.3643 -0.9267
vt 0.828169 0.181513
vt 0.618172 0.118268
vt 0.803482 0.029735
vt 0.713630 0.743016
vt 0.640455 0.637392
vt 0.721204 0.561533
vt 0.655388 0.455750
vt 0.713766 0.377197
vt 0.659331 0.901110
vt 0.609744 0.781531
vt 0.591272 0.533801
vt 0.626504 0.341903
vt 0.221054 0.595265
vt 0.249389 0.485887
vt 0.311555 0.530981
vt 0.312582 0.656006
vt 0.546046 0.282548
vt 0.689098 0.234520
vt 0.552878 0.438619
vt 0.498423 0.766907
vt 0.546915 0.655822
vt 0.501208 0.149493
vt 0.478467 0.533799
vt 0.374098 0.950679
vt 0.427294 0.845601
vt 0.469690 0.406338
vt 0.421948 0.312847
vt 0.453125 0.000000
vt 0.337208 0.091485
vt 0.351362 0.216171
vt 0.392101 0.593583
vt 0.389282 0.469165
vt 0.390588 0.718339
vt 0.303843 0.823516
vt 0.320215 0.368721
vt 0.221054 0.404735
vt 0.208642 0.306289
vt 0.171741 0.183197
vt 0.079157 0.048815
vt 0.147516 0.523151
vt 0.170820 0.841342
vt 0.131538 0.415904
vt 0.196230 0.698705
vt 0.084466 0.292801
vt 0.097495 0.674738
vt 0.076782 0.530835
vt 0.022611 0.150359
vt 0.030469 0.383797
vt 0.066931 0.793298
vt 0.015664 0.655822
vt 0.031154 0.911618
vt 0.000000 0.784407
vt 0.000000 0.273040
vt 1.000000 0.655822
vt 0.945557 0.768646
vt 0.937739 0.656003
vt 0.993268 0.527207
vt 0.935049 0.500692
vt 0.992171 0.399333
vt 0.886871 0.383980
vt 0.945396 0.911618
vt 0.820029 0.844678
vt 0.949425 0.148089
vt 0.959766 0.278455
vt 0.859414 0.655822
vt 0.804501 0.694669
vt 0.828125 1.000000
vt 0.785227 0.524248
vt 0.797630 0.405349
vt 0.794392 0.293677
vt 0.464857 0.646732
vt 0.010664 0.538824
vt 0.858032 0.530836
s 0
f 62/1/1 15/2/1 63/3/1
f 5/4/2 10/5/2 3/6/2
f 3/6/3 7/7/3 6/8/3
f 4/9/4 13/10/4 5/4/4
f 7/7/5 10/5/5 11/11/5
f 7/7/6 8/12/6 6/8/6
f 34/13/7 35/14/7 30/15/7 29/16/7
f 8/12/8 14/17/8 9/18/8
f 11/11/9 17/19/9 7/7/9
f 4/9/10 18/20/10 13/10/10
f 10/5/11 13/10/11 16/21/11
f 15/2/12 14/17/12 22/22/12
f 11/11/13 16/21/13 20/23/13
f 4/9/14 12/24/14 23/25/14
f 14/17/15 21/26/15 27/27/15
f 63/28/16 15/2/16 33/29/16
f 22/22/17 27/27/17 32/30/17
f 15/2/18 22/22/18 33/29/18
f 32/30/19 33/29/19 22/22/19
f 20/23/20 25/31/20 26/32/20
f 20/23/21 26/32/21 21/26/21
f 23/25/22 24/33/22 18/20/22
f 12/24/23 28/34/23 23/25/23
f 24/33/24 29/16/24 25/31/24
f 25/31/25 29/16/25 30/15/25
f 26/32/26 31/35/26 27/27/26
f 23/25/27 28/34/27 24/33/27
f 24/33/28 28/34/28 29/16/28
f 30/15/29 35/14/29 31/35/29
f 31/35/30 36/36/30 37/37/30
f 31/35/31 37/37/31 32/30/31
f 32/30/32 37/37/32 40/38/32
f 32/30/33 40/38/33 33/29/33
f 35/14/34 36/36/34 31/35/34
f 40/38/35 63/39/35 33/29/35
f 35/14/36 34/13/36 39/40/36
f 28/34/37 12/24/37 41/41/37
f 39/40/38 42/42/38 36/36/38
f 36/36/39 42/42/39 37/37/39
f 34/13/40 38/43/40 39/40/40
f 37/37/41 42/42/41 46/44/41
f 39/40/42 43/45/42 44/46/42
f 40/38/43 46/44/43 54/47/43
f 44/46/44 49/48/44 42/42/44
f 42/42/45 49/48/45 46/44/45
f 43/45/46 45/49/46 47/50/46
f 45/49/47 55/51/47 53/52/47
f 49/48/48 52/53/48 46/44/48
f 47/54/49 53/55/49 50/56/49
f 48/57/50 51/58/50 49/59/50
f 48/57/51 50/56/51 51/58/51
f 51/58/52 58/60/52 49/59/52
f 55/61/53 2/62/53 53/55/53
f 54/63/54 52/64/54 62/1/54
f 58/60/55 62/1/55 52/64/55
f 50/56/56 53/55/56 56/65/56
f 2/62/57 59/66/57 53/55/57
f 55/61/58 12/67/58 4/9/58
f 60/68/59 6/8/59 61/69/59
f 59/66/60 2/62/60 5/4/60
f 59/66/61 5/4/61 3/6/61
f 60/68/62 3/6/62 6/8/62
f 1/70/63 6/8/63 9/18/63
f 62/1/64 9/18/64 15/2/64
f 2/62/65 4/9/65 5/4/65
f 9/18/66 6/8/66 8/12/66
f 3/6/67 10/5/67 7/7/67
f 5/4/68 13/10/68 10/5/68
f 9/18/69 14/17/69 15/2/69
f 7/7/70 17/19/70 8/12/70
f 14/17/71 8/12/71 17/19/71
f 11/11/72 10/5/72 16/21/72
f 16/21/73 13/10/73 18/20/73
f 17/19/74 11/11/74 20/23/74
f 17/19/75 20/23/75 21/26/75
f 4/9/76 23/25/76 18/20/76
f 14/17/77 17/19/77 21/26/77
f 16/21/78 18/20/78 19/71/78
f 20/23/79 16/21/79 19/71/79
f 22/22/80 14/17/80 27/27/80
f 19/71/81 18/20/81 24/33/81
f 19/71/82 24/33/82 25/31/82
f 20/23/83 19/71/83 25/31/83
f 21/26/84 26/32/84 27/27/84
f 26/32/85 25/31/85 30/15/85
f 26/32/86 30/15/86 31/35/86
f 27/27/87 31/35/87 32/30/87
f 28/34/88 41/41/88 38/43/88
f 29/16/89 28/34/89 38/43/89
f 29/16/90 38/43/90 34/13/90
f 43/45/91 38/43/91 41/41/91 45/49/91
f 35/14/92 39/40/92 36/36/92
f 47/50/93 48/72/93 44/46/93 43/45/93
f 37/37/94 46/44/94 40/38/94
f 39/40/95 38/43/95 43/45/95
f 12/24/96 55/51/96 41/41/96
f 39/40/97 44/46/97 42/42/97
f 40/38/98 54/47/98 63/39/98
f 41/41/99 55/51/99 45/49/99
f 44/46/100 48/72/100 49/48/100
f 56/65/101 57/73/101 51/58/101 50/56/101
f 54/47/102 46/44/102 52/53/102
f 47/50/103 45/49/103 53/52/103
f 48/57/104 47/54/104 50/56/104
f 52/64/105 49/59/105 58/60/105
f 59/66/106 60/68/106 57/73/106 56/65/106
f 51/58/107 57/73/107 58/60/107
f 58/60/108 1/70/108 62/1/108
f 56/65/109 53/55/109 59/66/109
f 54/63/110 62/1/110 63/3/110
f 61/69/111 58/60/111 57/73/111 60/68/111
f 2/62/112 55/61/112 4/9/112
f 1/70/113 58/60/113 61/69/113
f 61/69/114 6/8/114 1/70/114
f 62/1/115 1/70/115 9/18/115
f 60/68/116 59/66/116 3/6/116
